<svg width="430" height="500" viewBox="0 0 430 500" fill="none" xmlns="http://www.w3.org/2000/svg">
<path fill-rule="evenodd" clip-rule="evenodd" d="M342.416 207.155H295.257H248.098L259.164 173.5L274.41 127.131L289.656 80.7617L293 80.7814L336.673 81.0395L321.62 127L309.372 164.394L337.5 164.411L356.249 164.422L351.368 179.5L342.416 207.155Z" fill="url(#paint0_linear_19333_5117)"/>
<path fill-rule="evenodd" clip-rule="evenodd" d="M46.7946 687.461H0C0 687.461 187.848 109.284 207.75 48.0486C217.062 19.398 243.757 0 273.877 0H357.534C382.762 0 403.817 10.6562 416.908 28.6634C429.99 46.6715 433.701 69.7134 426.073 93.22C418.434 116.726 411.219 138.916 404.614 159.247C395.696 186.699 370.99 205.614 342.425 207.153C342.425 207.153 342.277 207.105 382.3 83.9191C385.834 73.0483 384.544 62.4078 378.992 54.7764C373.451 47.1459 364.1 42.6299 351.727 42.6299H279.941C265.845 42.6299 253.354 51.7072 248.993 65.1147L46.7946 687.461Z" fill="#F0145A"/>
<defs>
<linearGradient id="paint0_linear_19333_5117" x1="248.091" y1="182.946" x2="353.01" y2="237.784" gradientUnits="userSpaceOnUse">
<stop stop-color="#F0145A"/>
<stop offset="1" stop-color="#693264"/>
</linearGradient>
</defs>
</svg>
